<svg height="945" width="966" xmlns="http://www.w3.org/2000/svg"><g fill="none" opacity=".099"><path d="m468.755 937.353-449.011-265.623c-14.295-8.047-26.548-21.23-12.62-29.878l450.61-259.962c6.754-4.194 17.018-6.946 23.903-2.936l471.265 273.827c14.296 8.308 16.861 31.45 2.619 39.837l-427.596 244.315a59.64 59.64 0 0 1 -59.17.42z" fill="#6862e6"/><g stroke="#1e1f36"><path d="m468.755 561.353-449.011-265.623c-14.295-8.047-26.548-21.23-12.62-29.878l450.61-259.962c6.754-4.194 17.018-6.946 23.903-2.936l471.265 273.827c14.296 8.308 16.861 31.45 2.619 39.837l-427.596 244.315a59.64 59.64 0 0 1 -59.17.42z"/><path d="m468.755 636.353-449.011-265.623c-14.295-8.047-26.548-21.23-12.62-29.878l450.61-259.962c6.754-4.194 17.018-6.946 23.903-2.936l471.265 273.827c14.296 8.308 16.861 31.45 2.619 39.837l-427.596 244.315a59.64 59.64 0 0 1 -59.17.42z"/></g></g></svg>